<?xml version="1.0" encoding="utf-8"?>
<svg viewBox="14.085 76.143 277.79 207.062" xmlns="http://www.w3.org/2000/svg">
  <g id="SvgjsG1050" transform="matrix(0.9999999999999999, 0, 0, 0.9999999999999999, 0, 0)">
    <svg xmlns="http://www.w3.org/2000/svg" viewBox="0 0 2000 2000" width="360" height="360">
      <defs>
        <clipPath id="a">
          <path fill="none" d="M1256.719 963.2c-34.4 51.542-380.844 79.806-425.875 16.471-69.6-97.8 130.844-377.3 130.844-377.3-2.586-13.359-3.068-45.653 7.456-58.255 15.942-19.155-7.773-37.347 6.98-41.479 18.96-5.291 34.153 12.62 67.183 21.577 19.569 5.252 16.837 56.619-1.664 85.37-6.585 10.2-19.164 11.132-19.164 11.132s-77.321 190.261-60.9 226.7c20.369 45.072 117.34-6.822 266.336-27.854 71.255-10.071 47.759 115.228 28.804 143.638Z"/>
        </clipPath>
        <clipPath id="b">
          <path fill="none" d="M1225.557 1383.137c8.818-166.389-49.667-311.2-44.343-406.321 3.411-60.341-22.712-149.9 76.456-164.409 85.024-12.438 190.1 10.034 210.814 32.912 41.93 46.156 26.705 296.421-13.145 330.556-79.866 50.99-167.386 156.314-229.782 207.262Z"/>
        </clipPath>
        <clipPath id="c">
          <path fill="none" d="M1458.657 848.333c57.161 24.13 173.557 352.544 106.649 413.727s-508.019-46.6-508.019-46.6c-12.638 5.047-44.185 11.582-58.62 3.605-21.724-12.054-8.355-38.971-15.183-52.68-8.753-17.629-71.281 22.037-68.761-12.108 1.57-20.194 102.939-31.493 134.65-18.7 11.339 4.559 14.611 16.748 14.611 16.748s314.181 29.1 346.892 6.125c40.451-28.462-60.943-131.077-45.165-247.07 9.71-71.299 61.562-76.323 92.946-63.047Z"/>
        </clipPath>
        <clipPath id="d">
          <path fill="none" d="M1271.174 810.159s33.528-24.8 25.707-50.907c-2-6.855-17.137 12.462-30.781 4.1-18.636-11.5-23.129-77.778-2.08-112.262 13.061-21.373 58.984-34.193 73.96-19.634s20.881 76.614 15.723 107c-8.153 48.47 36.023 77.629 36.023 77.629s-73.378 58.727-91.847 107.471c-5.407 14.314-26.705-113.397-26.705-113.397Z"/>
        </clipPath>
      </defs>
      <path fill="#f0f0f0" fill-rule="evenodd" d="M785 1537.168C520.391 1555.184 237.543 1341.3 237.543 1081c0-260.314 419.413-149.376 555.466-355.976 325.983-494.673 984.086 301.343 752.728 390.186-463.572 177.89-125.995 378.706-760.737 421.958Z" class="colorf0eff4 svgShape"/>
      <path fill="#f0f0f0" fill-rule="evenodd" d="M559.984 801.263c-91.227 21.546-228.255 99.852-259.824-45.163-21.627-99.361 235.2-90.877 288.54-145.93 117.338-121.106 297.943-11.542 220.715 27.39-154.746 77.972-30.591 112.007-249.431 163.703Z" class="colorf0eff4 svgShape"/>
      <path fill="#cbcbcb" fill-rule="evenodd" d="M1256.719 963.2c-34.4 51.542-380.844 79.806-425.875 16.471-69.6-97.8 130.844-377.3 130.844-377.3-2.586-13.359-3.068-45.653 7.456-58.255 15.942-19.155-7.773-37.347 6.98-41.479 18.96-5.291 34.153 12.62 67.183 21.577 19.569 5.252 16.837 56.619-1.664 85.37-6.585 10.2-19.164 11.132-19.164 11.132s-77.321 190.261-60.9 226.7c20.369 45.072 117.34-6.822 266.336-27.854 71.255-10.071 47.759 115.228 28.804 143.638Z" class="colorffc197 svgShape"/>
      <g fill-rule="evenodd" clip-path="url(#a)" fill="#000000" class="color000 svgShape">
        <path fill="#efefff" d="M1065.05 823.951c13.042 10 16.122 33.684 18.334 48.5 2.347 15.658 1.633 31.732-3.6 46.826-7.867 22.721-24.188 41.3-30.894 64.432-4.981 17.211-3.79 36.607 2.046 53.5a69.757 69.757 0 0 0 12.153 21.688c31.517 37.987 96.417 23.807 136.217 10.451 44.789-15.033 89.03-43.674 112.142-86.149 35.855-65.853 3.33-147.088-58.44-183.606a176.411 176.411 0 0 0-80.433-23.886c-33.661-1.767-68.222 4.619-97.307 22.034Z" class="colorfe9400 svgShape"/>
        <path fill-opacity=".1" d="M934.013 614.661c-22.379 42.229-51.247 134.567-66.305 179.633-19.218 57.862-26.872 101.722 2.662 153.535 34.942 61.472 151.58 37.446 208.651 21.655a449.095 449.095 0 0 0 37.271-12.113 367.217 367.217 0 0 0 50.166-22.745c33.278-18.6 61.064-44.159 85.939-72.82 7.155-8.219 13.561-17.2 21.132-25.017 2.246-2.337 5.657-5.782 9.318-5.357 6.156.707 7.571 12.063 8.4 16.481 3.162 18.3 2.912 37.421 1.664 55.881-4.908 72.962-28.618 145.848-93.843 185.7-40.266 24.618-90.432 32.271-136.355 39.01-45.84 6.722-94.093 12.8-140.515 8.569-82.862-7.554-170.3-43.56-215.639-117.046-52.411-85.127-28.285-198.894 14.727-282.627 10.732-20.874 23.128-40.949 37.854-59.243 28.7-35.649 67.137-68.1 112.478-78.985Z" fill="#000000" class="color000 svgShape"/>
      </g>
      <path fill="#364f6b" fill-rule="evenodd" d="M513.742 512.939C509.659 506.513 501.9 501.9 493 500.6a34.559 34.559 0 0 0-25.059 5.641L90.248 778.111c-9.791 7.048-12.487 18.494-6.543 27.851l475.32 748.2c4.142 6.521 11.837 11.037 20.8 12.435a34.559 34.559 0 0 0 25.059-5.641l377.691-271.871c9.791-7.048 12.487-18.494 6.542-27.851Zm-5.676 2.3 475.379 748.3c4.624 7.278 2.538 16.218-5.165 21.763l-377.69 271.87a27.431 27.431 0 0 1-19.611 4.474c-7.033-1-13.036-4.666-16.278-9.769L89.382 803.666c-4.684-7.372-2.6-16.312 5.1-21.857l377.689-271.87a27.427 27.427 0 0 1 19.611-4.473c7.099 1.091 13.042 4.665 16.284 9.768Z" class="color77536f svgShape"/>
      <path fill="#b5b5b5" fill-rule="evenodd" d="M586.834 506.112a9.339 9.339 0 0 0-6.261-4.24 9.661 9.661 0 0 0-7.3 1.547L170.739 793.17a9.537 9.537 0 0 0-2.419 12.874l470.669 740.885a9.108 9.108 0 0 0 6.2 4.149 9.237 9.237 0 0 0 7.305-1.547l402.529-289.751a9.439 9.439 0 0 0 2.477-12.78Z" class="colora9a5c6 svgShape"/>
      <path fill="#ffffff" fill-rule="evenodd" d="M892.1 1088.719c-6.7-10.542-19.156-18.025-33.761-20.171s-29.595 1.222-40.632 9.166L607.394 1229.1c-26.8 19.289-34.023 50.424-17.731 76.068 6.7 10.542 19.15 18.015 33.754 20.16s29.595-1.221 40.581-9.128l210.363-151.426c26.745-19.249 34.029-50.411 17.739-76.055Zm-4.536 1.809.006.01c15.254 24.01 8.432 53.192-16.618 71.224l-210.365 151.425c-9.8 7.058-23.218 10.083-36.258 8.164-12.987-1.957-24.157-8.588-30.137-18-15.253-24.009-8.432-53.191 16.619-71.224L821.175 1080.7c9.8-7.057 23.218-10.083 36.2-8.136 13.038 1.921 24.209 8.552 30.188 17.964Z" class="colorfff svgShape"/>
      <path fill="#364f6b" fill-rule="evenodd" d="M1061.28 1021.52a57.888 57.888 0 0 0-82.68-15.92l-269.135 193.726a65.579 65.579 0 0 0-17.036 88.43 57.862 57.862 0 0 0 82.681 15.923l269.134-193.729a65.631 65.631 0 0 0 17.044-88.418Z" class="color77536f svgShape"/>
      <path fill="#ffffff" fill-rule="evenodd" d="M750.226 872.607a23.367 23.367 0 0 0-33.4-6.415l-263.118 189.4a26.325 26.325 0 0 0-6.853 35.494 23.367 23.367 0 0 0 33.346 6.447L743.373 908.1a26.318 26.318 0 0 0 6.856-35.488ZM806.212 960.712a23.368 23.368 0 0 0-33.4-6.416L509.693 1143.7a26.325 26.325 0 0 0-6.853 35.494 23.368 23.368 0 0 0 33.346 6.448l263.17-189.436a26.319 26.319 0 0 0 6.856-35.489Z" class="colorfff svgShape"/>
      <ellipse cx="493.071" cy="824.031" fill="#ffffff" rx="124.899" ry="103.561" transform="rotate(-43.2 493.07 824.03)" class="colorfff svgShape"/>
      <path fill="#d8d8d8" fill-rule="evenodd" d="M482.619 875.921c-14.591-.221-27.744-6.623-35.476-18.794-14.017-22.064-4.866-54.789 20.482-73.036s57.4-15.164 71.414 6.9c9.066 14.271 8.325 33.034-.044 49.4 34.363-11.562 65.112-5.833 72.865 15.515 9.073 25.067-17.052 62.257-58.26 82.973s-82.157 17.222-91.229-7.845c-5.66-15.934 2.729-36.734 20.248-55.113Z" class="colord1cfe1 svgShape"/>
      <path fill="#efefff" fill-rule="evenodd" d="M1225.557 1383.137c8.818-166.389-49.667-311.2-44.343-406.321 3.411-60.341-22.712-149.9 76.456-164.409 85.024-12.438 190.1 10.034 210.814 32.912 41.93 46.156 26.705 296.421-13.145 330.556-79.866 50.99-167.386 156.314-229.782 207.262Z" class="colorfe9400 svgShape"/>
      <g clip-path="url(#b)" fill="#000000" class="color000 svgShape">
        <path fill-opacity=".1" fill-rule="evenodd" d="M1397.51 936.749c-6.906 9.217-10.816 20.624-14.061 31.539-8.569 28.144-8.9 56.231-4.991 85.191 3.827 28.6 11.4 58.227 6.239 87.154-3.909 21.4-15.39 39.093-26.621 57.263-28.2 45.7-44.842 60.707-83.029 94.592-21.714 19.2-64.059 98.127-57.653 128.843 4.41 21.422 38.269.623 51-5.924 34.526-17.795 65.391-42.812 99.084-62.354 48.086-27.961 102.162-52.113 138.186-96.123 47.837-58.5 53.577-146.954 35.191-217.877-8.736-33.76-24.126-69.093-54.492-88.461Z" fill="#000000" class="color000 svgShape"/>
      </g>
      <path fill="#cbcbcb" fill-rule="evenodd" d="M1458.657 848.333c57.161 24.13 173.557 352.544 106.649 413.727s-508.019-46.6-508.019-46.6c-12.638 5.047-44.185 11.582-58.62 3.605-21.724-12.054-8.355-38.971-15.183-52.68-8.753-17.629-71.281 22.037-68.761-12.108 1.57-20.194 102.939-31.493 134.65-18.7 11.339 4.559 14.611 16.748 14.611 16.748s314.181 29.1 346.892 6.125c40.451-28.462-60.943-131.077-45.165-247.07 9.71-71.299 61.562-76.323 92.946-63.047Z" class="colorffc197 svgShape"/>
      <g clip-path="url(#c)" fill="#000000" class="color000 svgShape">
        <path fill="#efefff" fill-rule="evenodd" d="M1368.411 1061.224c7.378-14.687 30.062-22.155 44.2-27.107 14.939-5.243 30.862-7.557 46.669-5.253 23.793 3.465 45.105 16.011 69.082 18.259 17.841 1.664 36.669-3.144 52.168-12.046a69.744 69.744 0 0 0 19.023-16.006c31.4-38.083 5.3-99.171-15.287-135.76-23.168-41.174-59.6-79.256-105.657-93.99-71.41-22.865-145.1 24.322-169.383 91.845a176.4 176.4 0 0 0-8.373 83.486c4.578 33.395 17.334 66.145 39.9 91.447Z" class="colorfe9400 svgShape"/>
      </g>
      <path fill="#cbcbcb" fill-rule="evenodd" d="M1271.174 810.159s33.528-24.8 25.707-50.907c-2-6.855-17.137 12.462-30.781 4.1-18.636-11.5-23.129-77.778-2.08-112.262 13.061-21.373 58.984-34.193 73.96-19.634s20.881 76.614 15.723 107c-8.153 48.47 36.023 77.629 36.023 77.629s-73.378 58.727-91.847 107.471c-5.407 14.314-26.705-113.397-26.705-113.397Z" class="colorffc197 svgShape"/>
      <g clip-path="url(#d)" fill="#000000" class="color000 svgShape">
        <path fill-opacity=".1" fill-rule="evenodd" d="M1288.136 762.82c2.662-1.439 4.825-4.376 6.822-6.572a139.778 139.778 0 0 0 12.646-15.682c1.414-2.2 2.828-4.443 4.409-6.615.333-.549 1.248-2.146 2.08-2.146s.333 2.746.25 3.1a66.591 66.591 0 0 1-2.663 11.314c-4.575 15.091-13.976 26.389-24.043 38.128Z" fill="#000000" class="color000 svgShape"/>
      </g>
      <path fill-rule="evenodd" d="M1274.253 679.094c-6.24-.374-12.063-4.018-16.889-7.745-18.552-14.293-17.3-39.16-1.165-54.834 9.734-9.409 29.7-15.69 39.019-2.445 2.995-4.243 9.234-6.041 13.976-7.147a34.573 34.573 0 0 1 11.814-1.032c27.121 3.653 20.8 37.737 41.43 48.636 6.739-4.335 14.144 9.833 15.474 14.151 4.576 15.017 2.58 40.682-14.725 46.672-1.5 4.035-5.324 6.872-8.735 9.2-9.4 6.465-24.543 11.09-35.025 4.41a16.982 16.982 0 0 1-3.411-2.912c-7.487-8.328.416-17.82 2.912-26.472 1.331-4.56 2.413-10.267-1.58-13.852-3.245-2.812-6.49-1.215-9.069 1.5-3.91 4.135-6.073 10.649-12.313 11.814-8.985 1.664-17.72-6.972-20.549-13.029-.583-1.283-1.164-6.915-1.164-6.915Z" fill="#000000" class="color000 svgShape"/>
      <g fill-rule="evenodd" fill="#000000" class="color000 svgShape">
        <path fill="#364f6b" d="M1216.889 612.983a15.632 15.632 0 0 0-8.738-14.048L874 434.6a15.69 15.69 0 0 0-22.573 14.052v55.3A15.719 15.719 0 0 0 860.165 518l334.216 164.366a15.624 15.624 0 0 0 22.506-14.089Z" class="color77536f svgShape"/>
        <path fill="#ffffff" d="m898.564 516.488-7.11-8.045 9.251-9.4-16.355-12.375 2.186-6.968 16.356 12.373-.866-17.059 8.459 3.734.865 17.059 15.821 1.831 3.01 9.262-15.821-1.832 10.652 18.189-6.6 1.993-10.6-18.172ZM957.422 545.4l-7.11-8.046 9.251-9.4-16.355-12.372 2.186-6.968 16.356 12.372-.866-17.058 8.459 3.734.865 17.058 15.821 1.832 3.01 9.261-15.821-1.831 10.652 18.189-6.6 1.992-10.6-18.171ZM1020.488 573.528l-7.11-8.045 9.251-9.4-16.355-12.372 2.186-6.968 16.356 12.373-.866-17.059 8.459 3.734.865 17.059 15.821 1.831 3.01 9.262-15.821-1.832 10.652 18.189-6.6 1.993-10.6-18.172ZM1082.07 606.705l-7.11-8.046 9.251-9.4-16.355-12.373 2.187-6.967 16.355 12.372-.866-17.058 8.459 3.734.865 17.058 15.821 1.832 3.01 9.261-15.821-1.831 10.652 18.188-6.6 1.993-10.6-18.171ZM1147.055 638.664l-7.11-8.045 9.251-9.4-16.355-12.372 2.187-6.968 16.355 12.373-.866-17.059 8.459 3.734.866 17.059 15.82 1.831 3.01 9.262-15.821-1.832 10.652 18.189-6.6 1.993-10.6-18.172Z" class="colorfff svgShape"/>
      </g>
      <path fill="#cbcbcb" fill-rule="evenodd" d="M1006.811 612.137c5.2-5.9 36.425-20.114 44.621-21.255 13.07-1.92 25.373 6.642 20.844 19.071-1.8 4.782-41.351 15.769-52.229 16.159-4.454.141-15.312-11.637-13.236-13.975Z" class="colorffc197 svgShape"/>
    </svg>
  </g>
</svg>